<svg width="40" height="40" viewBox="0 0 40 40" fill="none" xmlns="http://www.w3.org/2000/svg">
<g clip-path="url(#clip0)">
<path d="M20.68 7.36C23.5333 7.36 25.8133 8.10666 27.52 9.6C29.2533 11.0933 30.12 13.2 30.12 15.92C30.12 18.4267 29.2933 20.3867 27.64 21.8C26.0133 23.1867 23.8533 23.8933 21.16 23.92L20.96 26.92H14.96L14.76 19.48H17.16C19.2133 19.48 20.7733 19.2267 21.84 18.72C22.9333 18.2133 23.48 17.2933 23.48 15.96C23.48 15.0267 23.2267 14.2933 22.72 13.76C22.2133 13.2267 21.5067 12.96 20.6 12.96C19.64 12.96 18.8933 13.24 18.36 13.8C17.8267 14.3333 17.56 15.0667 17.56 16H11.12C11.0667 14.3733 11.4 12.9067 12.12 11.6C12.8667 10.2933 13.96 9.26667 15.4 8.52C16.8667 7.74667 18.6267 7.36 20.68 7.36ZM18.04 37.32C16.84 37.32 15.8533 36.9733 15.08 36.28C14.3333 35.56 13.96 34.68 13.96 33.64C13.96 32.5733 14.3333 31.68 15.08 30.96C15.8533 30.24 16.84 29.88 18.04 29.88C19.2133 29.88 20.1733 30.24 20.92 30.96C21.6933 31.68 22.08 32.5733 22.08 33.64C22.08 34.68 21.6933 35.56 20.92 36.28C20.1733 36.9733 19.2133 37.32 18.04 37.32Z" fill="#396A61"/>
<path d="M13.5 14.5C15.7698 14.5 17.5 12.4205 17.5 10C17.5 7.57952 15.7698 5.5 13.5 5.5C11.2302 5.5 9.5 7.57952 9.5 10C9.5 12.4205 11.2302 14.5 13.5 14.5Z" fill="white" stroke="#1D1B19"/>
<circle cx="13.5" cy="10.5" r="1.5" fill="#1D1B19"/>
<path d="M26.5 14.5C28.7698 14.5 30.5 12.4205 30.5 10C30.5 7.57952 28.7698 5.5 26.5 5.5C24.2302 5.5 22.5 7.57952 22.5 10C22.5 12.4205 24.2302 14.5 26.5 14.5Z" fill="white" stroke="#1D1B19"/>
<circle cx="26.5" cy="10.5" r="1.5" fill="#1D1B19"/>
<path d="M8 5C8.16667 4 9.4 2 13 2" stroke="black"/>
<path d="M32 5.5C31.8333 4.5 30.6 2.5 27 2.5" stroke="black"/>
<path d="M17.5 10.5005C18 10.0005 19.7 9.30047 22.5 10.5005" stroke="#1D1B19"/>
</g>
<defs>
<clipPath id="clip0">
<rect width="40" height="40" fill="white"/>
</clipPath>
</defs>
</svg>
