<svg width="24" height="24" viewBox="0 0 24 24" fill="none" xmlns="http://www.w3.org/2000/svg">
<rect x="7" y="13" width="2" height="2" rx="1" fill="#818690"/>
<rect x="7" y="17" width="2" height="2" rx="1" fill="#818690"/>
<path d="M13 14C13 13.4477 12.5523 13 12 13C11.4477 13 11 13.4477 11 14C11 14.5523 11.4477 15 12 15C12.5523 15 13 14.5523 13 14Z" fill="#818690"/>
<rect width="2" height="2" rx="1" transform="matrix(-1 0 0 1 13 17)" fill="#818690"/>
<rect width="2" height="2" rx="1" transform="matrix(-1 0 0 1 17 13)" fill="#818690"/>
<rect width="2" height="2" rx="1" transform="matrix(-1 0 0 1 17 17)" fill="#818690"/>
<path d="M4 22H20C20.5523 22 21 21.5523 21 21V5C21 4.44772 20.5523 4 20 4H4C3.44772 4 3 4.44772 3 5V21C3 21.5523 3.44772 22 4 22Z" stroke="#818690" stroke-width="2"/>
<path d="M8 6.5V1M16 6.5V1" stroke="#818690" stroke-width="2" stroke-linecap="round"/>
<path d="M3 10L21 10" stroke="#818690" stroke-width="2"/>
</svg>
