<svg width="32" height="32" viewBox="0 0 32 32" fill="none" xmlns="http://www.w3.org/2000/svg">
<path fill-rule="evenodd" clip-rule="evenodd" d="M30.9022 0.420577C32.023 1.20098 32.3372 2.79895 31.6042 3.99227L15.1206 30.8316C14.9285 31.1443 14.675 31.4089 14.3775 31.6071C14.08 31.8052 13.7456 31.9323 13.3974 31.9794C13.0493 32.0265 12.6957 31.9926 12.361 31.88C12.0264 31.7673 11.7187 31.5787 11.4593 31.3271L0.793468 21.0043C0.317723 20.5438 0.0332896 19.9009 0.00274058 19.2172C-0.0278084 18.5334 0.198029 17.8647 0.630572 17.3582C1.06311 16.8518 1.66693 16.5489 2.30919 16.5164C2.95144 16.4839 3.57953 16.7243 4.05528 17.1848L12.619 25.472L27.5473 1.16795C27.8991 0.595298 28.4502 0.19487 29.0794 0.054718C29.7085 -0.0854341 30.3642 0.0461647 30.9022 0.420577Z" fill="#97CA4F"/>
</svg>
