<svg width="8" height="15" viewBox="0 0 8 15" fill="none" xmlns="http://www.w3.org/2000/svg">
<path d="M7.00174 7.99875C7.0022 8.2324 6.92082 8.45884 6.77174 8.63875L1.77174 14.6387C1.602 14.843 1.35809 14.9714 1.09366 14.9958C0.829238 15.0201 0.565957 14.9385 0.36174 14.7687C0.157523 14.599 0.0290995 14.3551 0.00471976 14.0907C-0.01966 13.8262 0.0620014 13.563 0.23174 13.3587L4.71174 7.99875L0.39174 2.63875C0.308674 2.53646 0.246643 2.41876 0.209211 2.29242C0.171779 2.16609 0.159685 2.03359 0.173624 1.90257C0.187564 1.77154 0.22726 1.64456 0.290434 1.52892C0.353608 1.41328 0.439013 1.31127 0.54174 1.22875C0.644561 1.13717 0.765188 1.06781 0.896061 1.02502C1.02693 0.982223 1.16524 0.966921 1.3023 0.980063C1.43936 0.993206 1.57223 1.03451 1.69259 1.1014C1.81295 1.16828 1.9182 1.2593 2.00174 1.36875L6.83174 7.36875C6.95726 7.55383 7.01711 7.77565 7.00174 7.99875Z" fill="#1D1B19"/>
</svg>
