<svg width="8" height="15" viewBox="0 0 8 15" fill="none" xmlns="http://www.w3.org/2000/svg">
<path d="M0.00314266 7.99875C0.00268632 8.2324 0.084061 8.45884 0.233142 8.63875L5.23314 14.6387C5.40288 14.843 5.64679 14.9714 5.91122 14.9958C6.17564 15.0201 6.43893 14.9385 6.64314 14.7687C6.84736 14.599 6.97578 14.3551 7.00016 14.0907C7.02454 13.8262 6.94288 13.563 6.77314 13.3587L2.29314 7.99875L6.61314 2.63875C6.69621 2.53646 6.75824 2.41876 6.79567 2.29242C6.8331 2.16609 6.8452 2.03359 6.83126 1.90257C6.81732 1.77154 6.77762 1.64456 6.71445 1.52892C6.65127 1.41328 6.56587 1.31127 6.46314 1.22875C6.36032 1.13717 6.2397 1.06781 6.10882 1.02502C5.97795 0.982223 5.83965 0.966921 5.70258 0.980063C5.56552 0.993206 5.43265 1.03451 5.31229 1.1014C5.19193 1.16828 5.08669 1.2593 5.00314 1.36875L0.173143 7.36875C0.0476268 7.55383 -0.0122282 7.77565 0.00314266 7.99875Z" fill="#1D1B19"/>
</svg>
