<svg width="15" height="20" viewBox="0 0 15 20" fill="none" xmlns="http://www.w3.org/2000/svg">
<path d="M8.99454 15.0045C10.0956 15.374 11.0678 15.6093 12.4647 16.0299C11.9281 22.674 5.51607 20.0354 8.99454 15.0045ZM14.7195 8.90116C14.6472 6.90624 14.2886 4.28934 11.4321 4.69939C10.093 5.0418 9.10364 6.48273 8.63831 8.96879C8.38273 10.3357 8.53135 12.2543 8.83282 13.4045C9.10807 14.215 9.01446 14.1651 9.31031 14.3191C10.4554 14.5718 11.5889 14.8516 12.7433 15.1369C13.916 14.3255 14.8791 10.0176 14.7195 8.90116ZM5.90414 8.74805C6.20537 7.59778 6.35399 5.67913 6.09853 4.31239C5.63356 1.82621 4.64405 0.385051 3.30477 0.0428698C0.44828 -0.367173 0.08967 2.24968 0.0173619 4.24472C-0.142263 5.36093 0.820988 9.6691 1.9938 10.4804C3.14807 10.1951 4.28148 9.91552 5.42689 9.66254C5.72238 9.50877 5.62877 9.55856 5.90414 8.74805ZM2.27198 11.3736C2.80843 18.0176 9.22046 15.379 5.74206 10.3483C4.64101 10.7178 3.66884 10.953 2.27198 11.3736Z" fill="#818690"/>
</svg>
